<svg width="24" height="25" viewBox="0 0 24 25" fill="none" xmlns="http://www.w3.org/2000/svg">
<g clip-path="url(#clip0_14182_4302)">
<path fill-rule="evenodd" clip-rule="evenodd" d="M9 2.32471C7.89543 2.32471 7 3.22014 7 4.32471H6.8C4.70132 4.32471 3 6.02603 3 8.12471V12.3247V18.5247C3 20.6234 4.70132 22.3247 6.8 22.3247H17.2C19.2987 22.3247 21 20.6234 21 18.5247V8.12471C21 6.02603 19.2987 4.32471 17.2 4.32471H17C17 3.22014 16.1046 2.32471 15 2.32471H9ZM16.7324 6.32471C16.3866 6.92251 15.7403 7.32471 15 7.32471H9C8.25972 7.32471 7.61337 6.92251 7.26756 6.32471H6.8C5.80589 6.32471 5 7.13059 5 8.12471V12.3247C5 15.0861 7.23858 17.3247 10 17.3247H19V8.12471C19 7.13059 18.1941 6.32471 17.2 6.32471H16.7324ZM9 4.32471H15V5.32471H9V4.32471ZM5 18.5247V17.2237C6.27052 18.5202 8.04131 19.3247 10 19.3247H18.8129C18.5184 19.9174 17.9067 20.3247 17.2 20.3247H6.8C5.80589 20.3247 5 19.5188 5 18.5247Z" fill="black"/>
<path d="M10 11.8247L11.2632 13.3247L14 10.3247" stroke="black" stroke-width="2" stroke-linecap="round" stroke-linejoin="round"/>
</g>
<defs>
<clipPath id="clip0_14182_4302">
<rect width="24" height="24" fill="white" transform="translate(0 0.324707)"/>
</clipPath>
</defs>
</svg>
