<svg width="24" height="24" viewBox="0 0 24 24" fill="none" xmlns="http://www.w3.org/2000/svg">
<path d="M9.84627 14.1461L9.72807 13.4055H9.72807L9.84627 14.1461ZM14.1537 14.1461L14.2719 13.4055H14.2719L14.1537 14.1461ZM14.3142 14.1717L14.196 14.9124L14.3142 14.1717ZM9.68577 14.1717L9.80397 14.9124H9.80397L9.68577 14.1717ZM19.3729 14.0798L19.4911 13.3392L19.4911 13.3392L19.3729 14.0798ZM17.4072 10.7197C16.9929 10.7197 16.6572 11.0554 16.6572 11.4697C16.6572 11.8839 16.9929 12.2197 17.4072 12.2197V10.7197ZM17.4072 5.36134C16.9929 5.36134 16.6572 5.69713 16.6572 6.11134C16.6572 6.52556 16.9929 6.86134 17.4072 6.86134V5.36134ZM19.2365 17.6089C18.8223 17.6089 18.4865 17.9447 18.4865 18.3589C18.4865 18.7731 18.8223 19.1089 19.2365 19.1089V17.6089ZM18.3572 13.308C17.943 13.308 17.6072 13.6438 17.6072 14.058C17.6072 14.4723 17.943 14.808 18.3572 14.808V13.308ZM4.62714 14.0798L4.50894 13.3392L4.50894 13.3392L4.62714 14.0798ZM6.59284 12.2197C7.00706 12.2197 7.34284 11.8839 7.34284 11.4697C7.34284 11.0554 7.00706 10.7197 6.59284 10.7197V12.2197ZM6.59284 6.86134C7.00706 6.86134 7.34284 6.52556 7.34284 6.11134C7.34284 5.69713 7.00706 5.36134 6.59284 5.36134V6.86134ZM4.76346 19.1089C5.17768 19.1089 5.51346 18.7731 5.51346 18.3589C5.51346 17.9447 5.17768 17.6089 4.76346 17.6089V19.1089ZM5.64276 14.808C6.05698 14.808 6.39276 14.4723 6.39276 14.058C6.39276 13.6438 6.05698 13.308 5.64276 13.308V14.808ZM9.80397 14.9124L9.96447 14.8867L9.72807 13.4055L9.56757 13.4311L9.80397 14.9124ZM14.0355 14.8867L14.196 14.9124L14.4324 13.4311L14.2719 13.4055L14.0355 14.8867ZM15.995 18.4595H8.00498V19.9595H15.995V18.4595ZM9.96447 14.8867C11.313 14.6715 12.687 14.6715 14.0355 14.8867L14.2719 13.4055C12.7668 13.1653 11.2332 13.1653 9.72807 13.4055L9.96447 14.8867ZM5.84284 17.7974C5.84284 18.9915 6.81087 19.9595 8.00498 19.9595V18.4595C7.63929 18.4595 7.34284 18.1631 7.34284 17.7974H5.84284ZM16.6572 17.7974C16.6572 18.1631 16.3607 18.4595 15.995 18.4595V19.9595C17.1891 19.9595 18.1572 18.9915 18.1572 17.7974H16.6572ZM18.1572 17.7974C18.1572 15.6245 16.5782 13.7736 14.4324 13.4311L14.196 14.9124C15.6139 15.1386 16.6572 16.3616 16.6572 17.7974H18.1572ZM7.34284 17.7974C7.34284 16.3616 8.38612 15.1386 9.80397 14.9124L9.56757 13.4311C7.42177 13.7736 5.84284 15.6245 5.84284 17.7974H7.34284ZM14.4042 7.94464C14.4042 9.27243 13.3278 10.3488 12 10.3488V11.8488C14.1562 11.8488 15.9042 10.1009 15.9042 7.94464H14.4042ZM12 10.3488C10.6722 10.3488 9.59583 9.27243 9.59583 7.94464H8.09583C8.09583 10.1009 9.84378 11.8488 12 11.8488V10.3488ZM9.59583 7.94464C9.59583 6.61685 10.6722 5.54047 12 5.54047V4.04047C9.84378 4.04047 8.09583 5.78842 8.09583 7.94464H9.59583ZM12 5.54047C13.3278 5.54047 14.4042 6.61685 14.4042 7.94464H15.9042C15.9042 5.78842 14.1562 4.04047 12 4.04047V5.54047ZM21.25 17.1595C21.25 17.4077 21.0488 17.6089 20.8005 17.6089V19.1089C21.8772 19.1089 22.75 18.2361 22.75 17.1595H21.25ZM22.75 17.1595C22.75 15.2582 21.3685 13.6388 19.4911 13.3392L19.2547 14.8204C20.4042 15.0039 21.25 15.9954 21.25 17.1595H22.75ZM19.3363 8.7905C19.3363 9.85595 18.4726 10.7197 17.4072 10.7197V12.2197C19.301 12.2197 20.8363 10.6844 20.8363 8.7905H19.3363ZM17.4072 6.86134C18.4726 6.86134 19.3363 7.72506 19.3363 8.7905H20.8363C20.8363 6.89663 19.301 5.36134 17.4072 5.36134V6.86134ZM20.8005 17.6089H19.2365V19.1089H20.8005V17.6089ZM18.3572 14.808H19.0983V13.308H18.3572V14.808ZM19.4911 13.3392C19.3612 13.3184 19.2297 13.308 19.0983 13.308V14.808C19.1507 14.808 19.2031 14.8122 19.2547 14.8204L19.4911 13.3392ZM1.25 17.1595C1.25 18.2361 2.12281 19.1089 3.19947 19.1089V17.6089C2.95124 17.6089 2.75 17.4077 2.75 17.1595H1.25ZM2.75 17.1595C2.75 15.9954 3.59583 15.0039 4.74533 14.8204L4.50894 13.3392C2.63147 13.6388 1.25 15.2582 1.25 17.1595H2.75ZM3.16369 8.7905C3.16369 10.6844 4.69897 12.2197 6.59284 12.2197V10.7197C5.5274 10.7197 4.66369 9.85595 4.66369 8.7905H3.16369ZM6.59284 5.36134C4.69897 5.36134 3.16369 6.89663 3.16369 8.7905H4.66369C4.66369 7.72506 5.5274 6.86134 6.59284 6.86134V5.36134ZM3.19947 19.1089H4.76346V17.6089H3.19947V19.1089ZM5.64276 13.308H4.90168V14.808H5.64276V13.308ZM4.74533 14.8204C4.79692 14.8122 4.84931 14.808 4.90168 14.808V13.308C4.77028 13.308 4.63884 13.3184 4.50894 13.3392L4.74533 14.8204Z" fill="black"/>
</svg>
