<svg width="24" height="24" viewBox="0 0 24 24" fill="none" xmlns="http://www.w3.org/2000/svg">
<path fill-rule="evenodd" clip-rule="evenodd" d="M5.5741 12H18.4265L18.0553 16.8247C17.9351 18.3877 16.6318 19.5946 15.0642 19.5946H8.93639C7.36878 19.5946 6.06545 18.3877 5.94522 16.8247L5.5741 12Z" stroke="white" stroke-width="1.5" stroke-linecap="round"/>
<rect x="4.40564" y="8.49481" width="15.1892" height="3.50519" rx="1" stroke="white" stroke-width="1.5" stroke-linecap="round"/>
<path fill-rule="evenodd" clip-rule="evenodd" d="M15.1549 8.49481C13.9934 8.49481 12.0003 6.45012 12.0003 6.45012C12.0003 6.45012 13.9934 4.40543 15.1549 4.40543C16.3165 4.40543 17.2581 5.32087 17.2581 6.45012C17.2581 7.57937 16.3165 8.49481 15.1549 8.49481Z" stroke="white" stroke-width="1.5" stroke-linecap="round"/>
<path fill-rule="evenodd" clip-rule="evenodd" d="M8.84554 8.49481C10.0071 8.49481 12.0002 6.45012 12.0002 6.45012C12.0002 6.45012 10.0071 4.40543 8.84554 4.40543C7.68403 4.40543 6.74243 5.32087 6.74243 6.45012C6.74243 7.57937 7.68403 8.49481 8.84554 8.49481Z" stroke="white" stroke-width="1.5" stroke-linecap="round"/>
</svg>
