<svg width="25" height="25" viewBox="0 0 25 25" fill="none" xmlns="http://www.w3.org/2000/svg">
<path fill-rule="evenodd" clip-rule="evenodd" d="M12.3245 20.7248C16.9637 20.7248 20.7245 16.964 20.7245 12.3248C20.7245 7.68561 16.9637 3.9248 12.3245 3.9248C7.68527 3.9248 3.92446 7.68561 3.92446 12.3248C3.92446 16.964 7.68527 20.7248 12.3245 20.7248Z" stroke="black" stroke-width="1.5" stroke-linecap="round"/>
<path d="M6.69287 13.7794H8.65878V13.1431H7.48264V10.8703H6.69287V13.7794Z" fill="black"/>
<path d="M11.6829 12.3249C11.6829 11.3533 11.0579 10.8306 10.2682 10.8306C9.4727 10.8306 8.85338 11.3533 8.85338 12.3249C8.85338 13.2908 9.4727 13.8192 10.2682 13.8192C11.0579 13.8192 11.6829 13.2965 11.6829 12.3249ZM10.8704 12.3249C10.8704 12.8476 10.6602 13.1317 10.2682 13.1317C9.87611 13.1317 9.66588 12.8476 9.66588 12.3249C9.66588 11.8022 9.87611 11.5181 10.2682 11.5181C10.6602 11.5181 10.8704 11.8022 10.8704 12.3249Z" fill="black"/>
<path d="M13.9375 11.8306H14.7358C14.6748 11.2468 14.1449 10.8306 13.4574 10.8306C12.6733 10.8306 12.037 11.3703 12.037 12.3306C12.037 13.251 12.6137 13.8192 13.4631 13.8192C14.2245 13.8192 14.7699 13.3533 14.7699 12.5578V12.1544H13.4802V12.7169H14.0086C14.0015 12.9698 13.8225 13.1317 13.4688 13.1317C13.0597 13.1317 12.8495 12.8306 12.8495 12.3192C12.8495 11.8149 13.0767 11.5181 13.4745 11.5181C13.7216 11.5181 13.8892 11.6317 13.9375 11.8306Z" fill="black"/>
<path d="M17.9564 12.3249C17.9564 11.3533 17.3314 10.8306 16.5416 10.8306C15.7461 10.8306 15.1268 11.3533 15.1268 12.3249C15.1268 13.2908 15.7461 13.8192 16.5416 13.8192C17.3314 13.8192 17.9564 13.2965 17.9564 12.3249ZM17.1439 12.3249C17.1439 12.8476 16.9336 13.1317 16.5416 13.1317C16.1495 13.1317 15.9393 12.8476 15.9393 12.3249C15.9393 11.8022 16.1495 11.5181 16.5416 11.5181C16.9336 11.5181 17.1439 11.8022 17.1439 12.3249Z" fill="black"/>
</svg>
