<svg width="24" height="24" viewBox="0 0 24 24" fill="none" xmlns="http://www.w3.org/2000/svg">
<path d="M7.20901 14.1168L7.09081 13.3762H7.0908L7.20901 14.1168ZM11.4577 14.1168L11.5759 13.3762H11.5759L11.4577 14.1168ZM11.616 14.1421L11.4978 14.8827H11.4978L11.616 14.1421ZM7.0507 14.1421L7.1689 14.8827H7.1689L7.0507 14.1421ZM16.9493 14.1421L17.0675 13.4014L16.9493 14.1421ZM14.6667 10.3611C14.2525 10.3611 13.9167 10.6969 13.9167 11.1111C13.9167 11.5253 14.2525 11.8611 14.6667 11.8611V10.3611ZM14.6667 4.13889C14.2525 4.13889 13.9167 4.47467 13.9167 4.88889C13.9167 5.3031 14.2525 5.63889 14.6667 5.63889V4.13889ZM16.791 18.3611C16.3768 18.3611 16.041 18.6969 16.041 19.1111C16.041 19.5253 16.3768 19.8611 16.791 19.8611V18.3611ZM15.7699 13.3668C15.3557 13.3668 15.0199 13.7026 15.0199 14.1168C15.0199 14.531 15.3557 14.8668 15.7699 14.8668V13.3668ZM7.1689 14.8827L7.32721 14.8574L7.0908 13.3762L6.9325 13.4014L7.1689 14.8827ZM11.3395 14.8574L11.4978 14.8827L11.7342 13.4014L11.5759 13.3762L11.3395 14.8574ZM13.2738 18.3611H5.39286V19.8611H13.2738V18.3611ZM7.32721 14.8574C8.65621 14.6453 10.0105 14.6453 11.3395 14.8574L11.5759 13.3762C10.0902 13.1391 8.57642 13.1391 7.09081 13.3762L7.32721 14.8574ZM3.25 17.7182C3.25 18.9017 4.20939 19.8611 5.39286 19.8611V18.3611C5.03782 18.3611 4.75 18.0733 4.75 17.7182H3.25ZM13.9167 17.7182C13.9167 18.0733 13.6288 18.3611 13.2738 18.3611V19.8611C14.4573 19.8611 15.4167 18.9017 15.4167 17.7182H13.9167ZM15.4167 17.7182C15.4167 15.5699 13.8556 13.74 11.7342 13.4014L11.4978 14.8827C12.8913 15.1051 13.9167 16.3071 13.9167 17.7182H15.4167ZM4.75 17.7182C4.75 16.3071 5.77538 15.1051 7.1689 14.8827L6.9325 13.4014C4.81102 13.74 3.25 15.5699 3.25 17.7182H4.75ZM11.6944 8C11.6944 9.304 10.6373 10.3611 9.33333 10.3611V11.8611C11.4658 11.8611 13.1944 10.1324 13.1944 8H11.6944ZM9.33333 10.3611C8.02933 10.3611 6.97222 9.304 6.97222 8H5.47222C5.47222 10.1324 7.2009 11.8611 9.33333 11.8611V10.3611ZM6.97222 8C6.97222 6.69599 8.02933 5.63889 9.33333 5.63889V4.13889C7.2009 4.13889 5.47222 5.86756 5.47222 8H6.97222ZM9.33333 5.63889C10.6373 5.63889 11.6944 6.69599 11.6944 8H13.1944C13.1944 5.86756 11.4658 4.13889 9.33333 4.13889V5.63889ZM19.25 17.7182C19.25 18.0733 18.9622 18.3611 18.6071 18.3611V19.8611C19.7906 19.8611 20.75 18.9017 20.75 17.7182H19.25ZM20.75 17.7182C20.75 15.5699 19.189 13.74 17.0675 13.4014L16.8311 14.8827C18.2246 15.1051 19.25 16.3071 19.25 17.7182H20.75ZM17.0278 8C17.0278 9.304 15.9707 10.3611 14.6667 10.3611V11.8611C16.7991 11.8611 18.5278 10.1324 18.5278 8H17.0278ZM14.6667 5.63889C15.9707 5.63889 17.0278 6.69599 17.0278 8H18.5278C18.5278 5.86756 16.7991 4.13889 14.6667 4.13889V5.63889ZM18.6071 18.3611H16.791V19.8611H18.6071V18.3611ZM15.7699 14.8668H16.6305V13.3668H15.7699V14.8668ZM17.0675 13.4014C16.923 13.3784 16.7767 13.3668 16.6305 13.3668V14.8668C16.6977 14.8668 16.7649 14.8721 16.8311 14.8827L17.0675 13.4014Z" fill="black"/>
</svg>
