<svg width="25" height="25" viewBox="0 0 25 25" fill="none" xmlns="http://www.w3.org/2000/svg">
<path d="M2.73824 3.79297C2.18596 3.79297 1.73824 4.24068 1.73824 4.79297C1.73824 5.34525 2.18596 5.79297 2.73824 5.79297L2.73824 3.79297ZM22.8665 6.79588C23.0273 6.26752 22.7293 5.70885 22.201 5.54804C21.6726 5.38724 21.1139 5.6852 20.9531 6.21355L22.8665 6.79588ZM20.3763 11.5434L19.4196 11.2522L20.3763 11.5434ZM3.39414 4.79297V3.79297V4.79297ZM2.73824 5.79297H3.39414V3.79297H2.73824L2.73824 5.79297ZM5.34975 7.37391L6.21814 11.4264L8.17374 11.0073L7.30535 6.95485L5.34975 7.37391ZM11.1071 15.3788H16.5496V13.3788H11.1071V15.3788ZM21.333 11.8346L22.8665 6.79588L20.9531 6.21355L19.4196 11.2522L21.333 11.8346ZM16.5496 15.3788C18.7503 15.3788 20.6922 13.9399 21.333 11.8346L19.4196 11.2522C19.0352 12.5154 17.87 13.3788 16.5496 13.3788V15.3788ZM6.21814 11.4264C6.71214 13.7318 8.74946 15.3788 11.1071 15.3788V13.3788C9.69254 13.3788 8.47015 12.3906 8.17374 11.0073L6.21814 11.4264ZM3.39414 5.79297C4.33722 5.79297 5.15214 6.45177 5.34975 7.37391L7.30535 6.95485C6.91015 5.11057 5.28029 3.79297 3.39414 3.79297V5.79297Z" fill="black"/>
<path fill-rule="evenodd" clip-rule="evenodd" d="M10.2691 19.8565C11.0254 19.8565 11.6385 19.2434 11.6385 18.4871C11.6385 17.7308 11.0254 17.1177 10.2691 17.1177C9.51279 17.1177 8.89968 17.7308 8.89968 18.4871C8.89968 19.2434 9.51279 19.8565 10.2691 19.8565Z" stroke="black" stroke-width="2" stroke-linecap="round"/>
<path fill-rule="evenodd" clip-rule="evenodd" d="M17.1178 19.8565C17.8741 19.8565 18.4872 19.2434 18.4872 18.4871C18.4872 17.7308 17.8741 17.1177 17.1178 17.1177C16.3615 17.1177 15.7484 17.7308 15.7484 18.4871C15.7484 19.2434 16.3615 19.8565 17.1178 19.8565Z" stroke="black" stroke-width="2" stroke-linecap="round"/>
<path fill-rule="evenodd" clip-rule="evenodd" d="M11.6381 7.18965C11.6381 7.75687 11.1783 8.21669 10.6111 8.21669C10.0439 8.21669 9.58404 7.75687 9.58404 7.18965C9.58404 6.62242 10.0439 6.1626 10.6111 6.1626C11.1783 6.1626 11.6381 6.62242 11.6381 7.18965ZM11.6381 10.6132C11.6381 11.1804 11.1783 11.6402 10.6111 11.6402C10.0439 11.6402 9.58404 11.1804 9.58404 10.6132C9.58404 10.0459 10.0439 9.5861 10.6111 9.5861C11.1783 9.5861 11.6381 10.0459 11.6381 10.6132ZM15.0614 10.6132C15.0614 11.1804 14.6016 11.6402 14.0344 11.6402C13.4671 11.6402 13.0073 11.1804 13.0073 10.6132C13.0073 10.0459 13.4671 9.5861 14.0344 9.5861C14.6016 9.5861 15.0614 10.0459 15.0614 10.6132ZM17.4576 11.6402C18.0248 11.6402 18.4847 11.1804 18.4847 10.6132C18.4847 10.0459 18.0248 9.5861 17.4576 9.5861C16.8904 9.5861 16.4306 10.0459 16.4306 10.6132C16.4306 11.1804 16.8904 11.6402 17.4576 11.6402ZM14.0344 8.21669C14.6016 8.21669 15.0614 7.75687 15.0614 7.18965C15.0614 6.62242 14.6016 6.1626 14.0344 6.1626C13.4671 6.1626 13.0073 6.62242 13.0073 7.18965C13.0073 7.75687 13.4671 8.21669 14.0344 8.21669ZM18.4847 7.18965C18.4847 7.75687 18.0248 8.21669 17.4576 8.21669C16.8904 8.21669 16.4306 7.75687 16.4306 7.18965C16.4306 6.62242 16.8904 6.1626 17.4576 6.1626C18.0248 6.1626 18.4847 6.62242 18.4847 7.18965Z" fill="black"/>
</svg>
