<svg width="24" height="24" viewBox="0 0 24 24" fill="none" xmlns="http://www.w3.org/2000/svg">
<circle cx="11.9998" cy="12" r="8.25" stroke="white" stroke-width="1.5"/>
<path d="M12.9844 10.3486H14.7423C14.7357 9.0203 13.7114 8.14139 12.0725 8.14139C10.4633 8.14139 9.3267 9.00708 9.33661 10.2957C9.33331 11.3531 10.0668 11.9412 11.2663 12.1989L11.9403 12.3443C12.6937 12.5095 12.9514 12.6979 12.958 13.0052C12.9514 13.3389 12.6474 13.5735 12.0593 13.5735C11.3555 13.5735 10.9391 13.2431 10.9094 12.6219H9.16479C9.1714 14.3202 10.3213 15.0802 12.0857 15.0802C13.8006 15.0802 14.8282 14.34 14.8348 13.0052C14.8282 11.9742 14.2136 11.2506 12.7201 10.9301L12.165 10.8112C11.524 10.6757 11.2365 10.4874 11.253 10.1636C11.2563 9.86617 11.5042 9.6481 12.0725 9.6481C12.6672 9.6481 12.9481 9.90913 12.9844 10.3486Z" fill="white"/>
<path d="M12.1054 17.2933H10.9027L11.5371 15.813H13.0967L12.1054 17.2933Z" fill="white"/>
</svg>
