<svg width="24" height="24" viewBox="0 0 24 24" fill="none" xmlns="http://www.w3.org/2000/svg">
<path d="M10.7608 14.7582L10.4587 15.7115L10.7608 14.7582ZM9.16298 8.83024L8.43853 8.14091L9.16298 8.83024ZM9.88743 9.51957L13.087 6.15695L11.6381 4.7783L8.43853 8.14091L9.88743 9.51957ZM12.5328 6.01579L15.1048 15.6147L17.0366 15.0971L14.4646 5.49815L12.5328 6.01579ZM15.5205 15.2173L11.0628 13.8049L10.4587 15.7115L14.9165 17.1239L15.5205 15.2173ZM9.58888 13.7717L6.0246 14.7267L6.54224 16.6586L10.1065 15.7035L9.58888 13.7717ZM5.08148 11.207L8.66182 10.2476L8.14418 8.31576L4.56384 9.27511L5.08148 11.207ZM3.79315 13.4384C3.53271 12.4665 4.10952 11.4674 5.08148 11.207L4.56384 9.27511C2.52495 9.82143 1.31498 11.9172 1.8613 13.9561L3.79315 13.4384ZM6.0246 14.7267C5.05264 14.9872 4.05359 14.4104 3.79315 13.4384L1.8613 13.9561C2.40762 15.9949 4.50334 17.2049 6.54224 16.6586L6.0246 14.7267ZM11.0628 13.8049C10.5847 13.6534 10.0733 13.6419 9.58888 13.7717L10.1065 15.7035C10.2223 15.6725 10.3445 15.6753 10.4587 15.7115L11.0628 13.8049ZM15.1048 15.6147C15.0377 15.3645 15.2736 15.139 15.5205 15.2173L14.9165 17.1239C16.1756 17.5228 17.3785 16.373 17.0366 15.0971L15.1048 15.6147ZM13.087 6.15695C12.9105 6.34245 12.599 6.26311 12.5328 6.01579L14.4646 5.49815C14.1267 4.23693 12.5382 3.83237 11.6381 4.7783L13.087 6.15695ZM8.43853 8.14091C8.35836 8.22516 8.25651 8.28566 8.14418 8.31576L8.66182 10.2476C9.12954 10.1223 9.55363 9.87036 9.88743 9.51957L8.43853 8.14091Z" fill="black"/>
<path opacity="0.4" d="M15.3446 12.6463V12.6463C16.4913 12.339 17.1718 11.1603 16.8646 10.0136C16.5573 8.8669 15.3786 8.18639 14.2319 8.49365" stroke="black" stroke-width="2" stroke-linecap="round"/>
<path opacity="0.4" d="M6.51716 15.3665C6.27237 14.8714 5.6726 14.6685 5.17752 14.9133C4.68245 15.1581 4.47955 15.7579 4.72434 16.2529L6.51716 15.3665ZM8.31069 9.52414C8.16775 8.99067 7.61941 8.67409 7.08595 8.81703C6.55248 8.95997 6.2359 9.50831 6.37884 10.0418L8.31069 9.52414ZM4.72434 16.2529L6.72464 20.2985L8.51746 19.412L6.51716 15.3665L4.72434 16.2529ZM10.7873 18.767L8.31069 9.52414L6.37884 10.0418L8.85545 19.2846L10.7873 18.767ZM9.24476 21.4387C10.4085 21.1269 11.0991 19.9307 10.7873 18.767L8.85545 19.2846C8.88139 19.3814 8.82394 19.4809 8.72712 19.5069L9.24476 21.4387ZM6.72464 20.2985C7.18554 21.2306 8.24032 21.7079 9.24476 21.4387L8.72712 19.5069C8.64356 19.5293 8.55581 19.4896 8.51746 19.412L6.72464 20.2985Z" fill="black"/>
<path opacity="0.4" d="M16.7422 5.57684L17.4235 4.11572" stroke="black" stroke-width="2" stroke-linecap="round"/>
<path opacity="0.4" d="M19.6597 8.76136L21.1746 8.20996" stroke="black" stroke-width="2" stroke-linecap="round"/>
<path opacity="0.4" d="M19.4722 13.0779L20.9333 13.7593" stroke="black" stroke-width="2" stroke-linecap="round"/>
</svg>
