<svg width="24" height="25" viewBox="0 0 24 25" fill="none" xmlns="http://www.w3.org/2000/svg">
<path d="M9.97906 5.83194C7.62022 5.83194 5.70801 7.74415 5.70801 10.103C5.70801 12.4618 7.62022 14.374 9.97906 14.374V14.374C10.5022 14.374 10.8688 13.9221 11.0426 13.4287C11.4141 12.3739 12.25 11.538 13.3048 11.1665C13.7982 10.9927 14.2501 10.6261 14.2501 10.103V10.103C14.2501 7.74415 12.3379 5.83194 9.97906 5.83194Z" stroke="black" stroke-width="2"/>
<rect x="10.5" y="10.8246" width="9.75" height="9.75" rx="4.875" stroke="black" stroke-width="2"/>
<path d="M9.75 21.5746C10.3023 21.5746 10.75 21.1269 10.75 20.5746C10.75 20.0223 10.3023 19.5746 9.75 19.5746V21.5746ZM9 21.5746H9.75V19.5746H9V21.5746ZM2.75 15.3246C2.75 18.7764 5.54822 21.5746 9 21.5746V19.5746C6.65279 19.5746 4.75 17.6718 4.75 15.3246H2.75Z" fill="black"/>
<path d="M1.62868 16.6959L3.75 14.5746L5.87132 16.6959" stroke="black" stroke-width="2" stroke-linecap="round" stroke-linejoin="round"/>
<path d="M14.25 3.07458C13.6977 3.07458 13.25 3.5223 13.25 4.07458C13.25 4.62687 13.6977 5.07458 14.25 5.07458V3.07458ZM15 3.07458H14.25V5.07458H15V3.07458ZM21.25 9.32458C21.25 5.87281 18.4518 3.07458 15 3.07458V5.07458C17.3472 5.07458 19.25 6.97738 19.25 9.32458H21.25Z" fill="black"/>
<path d="M22.3713 7.95326L20.25 10.0746L18.1287 7.95326" stroke="black" stroke-width="2" stroke-linecap="round" stroke-linejoin="round"/>
</svg>
