<svg width="24" height="24" viewBox="0 0 24 24" fill="none" xmlns="http://www.w3.org/2000/svg">
<path d="M6.55554 17.5311C6.55554 15.6543 7.87568 14.0556 9.6698 13.7598L9.8314 13.7332C11.268 13.4963 12.7319 13.4963 14.1686 13.7332L14.3302 13.7598C16.1243 14.0556 17.4444 15.6543 17.4444 17.5311C17.4444 18.3424 16.8078 19 16.0226 19H7.97742C7.19214 19 6.55554 18.3424 6.55554 17.5311Z" stroke="black" stroke-width="1.5"/>
<path d="M15.1759 8.0625C15.1759 9.75387 13.754 11.125 12 11.125C10.246 11.125 8.82408 9.75387 8.82408 8.0625C8.82408 6.37113 10.246 5 12 5C13.754 5 15.1759 6.37113 15.1759 8.0625Z" stroke="black" stroke-width="1.5"/>
</svg>
